<?xml version="1.0" encoding="UTF-8" standalone="no"?><svg
   xmlns:dc="http://purl.org/dc/elements/1.1/"
   xmlns:cc="http://creativecommons.org/ns#"
   xmlns:rdf="http://www.w3.org/1999/02/22-rdf-syntax-ns#"
   xmlns:svg="http://www.w3.org/2000/svg"
   xmlns="http://www.w3.org/2000/svg"
   xmlns:xlink="http://www.w3.org/1999/xlink"
   viewBox="0 0 300 400"
   preserveAspectRatio="xMinYMin meet"
   version="1.1"
   class="svg"><metadata><rdf:RDF><cc:Work
         rdf:about=""><dc:format>image/svg+xml</dc:format><dc:type
           rdf:resource="http://purl.org/dc/dcmitype/StillImage" /><dc:title>Box AHNLGBFM</dc:title></cc:Work></rdf:RDF></metadata><style type="text/css">
    text {font-family:Calibri,Carlito,sans-serif;font-weight:normal;font-style:normal;font-stretch:normal;font-variant:normal;font-size:24px;text-anchor:middle;text-align:center;writing-mode:lr;line-height:125%;vertical-align:center;}
    .dog-path, .dog-path-segment {fill:none;stroke-width:2;stroke:lightcoral;}
    .dog-path-segment {display:none; marker-end: url(#dog-marker)}
    use.number {stroke:#A00;fill:#A00;stroke-width:1.5;}
    .color {fill:#000;fill-opacity:1;stroke:#000;stroke-opacity:1;}
    .light {fill:#fff;fill-opacity:1;stroke:#000;stroke-opacity:1;}
    .tail, .collar, .nose {stroke-width:0.5;stroke-miterlimit:4;stroke-dasharray:none}
    .ear, .nose-patch, .eye {stroke-width:0;stroke-miterlimit:4;stroke-dasharray:none}
    .body {stroke-width:2.5;stroke-miterlimit:4;stroke-dasharray:none}
    .pupil {stroke-width:0.5;stroke-miterlimit:4;stroke-dasharray:none}
    .collar .tail-light {stroke-width:0.2}
    .forehead-stripe {stroke:#fff}
  </style><defs><marker id="dog-marker" markerUnits="userSpaceOnUse" orient="auto" refX="-10" refY="-11" overflow="visible"><g transform="rotate(180) translate(-85, -320.5)"><path d="m 168.57143,342.36218 a 48.57143,16.002716 0 1 1 -97.14286,0 48.57143,16.002716 0 1 1 97.14286,0 z"
              transform="matrix(0.32710001,0,0,0.2784047,46.804973,236.39296)"/><rect width="4.0" height="4.0" x="427.17111" y="-315.4704"
            transform="matrix(0.89394488,0.44817692,0.89598138,-0.44409161,0,0)" class="tail"/><rect
          width="4.0"
          height="4.0"
          x="433.19666"
          y="-319.34143"
          transform="matrix(0.89687096,0.4422923,0.89886065,-0.43823456,0,0)"
          class="tail"/><rect
          width="4.0"
          height="4.0"
          x="426.9075"
          y="-309.61975"
          transform="matrix(0.89203883,0.45195876,0.89410555,-0.4478563,0,0)"
          class="tail"/><rect
          width="4.5"
          height="4.5"
          x="477.41101"
          y="-362.47357"
          transform="matrix(0.9180799,0.39639538,0.91971479,-0.39258719,0,0)"
          class="light" style="stroke:inherit;stroke-width:0.5"/><g transform="translate(0.3,0)"><path class="collar light" style="stroke:inherit"
              d="m 78.665628,333.44925 a 3.7880721,3.0935922 0 1 1 -7.576144,0 3.7880721,3.0935922 0 1 1 7.576144,0 z"
              transform="matrix(0.04548494,1.1005618,-0.78579549,0.06082037,339.2468,229.02032)"/></g><rect class="ear"
            width="4.6"
            height="4.6"
            x="-144.54303"
            y="271.81638"
            transform="matrix(0.58551105,-0.81066443,0.58990933,0.80746949,0,0)"/><rect class="ear"
            width="4.6"
            height="4.6"
            x="-138.29991"
            y="265.81006"
            transform="matrix(0.58551105,-0.81066443,0.58990933,0.80746949,0,0)"/><path class="forehead-stripe light"
            d="m 59.093923,328.46161 a 2.841054,0.75761443 0 1 1 -5.682108,0 2.841054,0.75761443 0 1 1 5.682108,0 z"
            transform="matrix(1,0,0,0.5,20.23276,167.47739)"/><g class="eye" transform="translate(-0.6,-0.5)"><path class="light"
              d="m 59.093923,328.46161 a 2.841054,0.75761443 0 1 1 -5.682108,0 2.841054,0.75761443 0 1 1 5.682108,0 z"
              transform="matrix(0.02140183,-0.3519611,-1.3174475,0.01425327,509.05512,345.02044)"/><path class="pupil"
              d="m 65.267859,317.98718 a 0.71428573,0.8035714 0 1 1 -1.428571,0 0.71428573,0.8035714 0 1 1 1.428571,0 z"
              transform="matrix(0.42169529,0,0,0.37484028,50.306171,210.70887)"/></g><g class="eye" transform="translate(-0.6,0.5)"><path class="light"
              d="m 59.093923,328.46161 a 2.841054,0.75761443 0 1 1 -5.682108,0 2.841054,0.75761443 0 1 1 5.682108,0 z"
              transform="matrix(0.02140184,-0.3519611,-1.3174475,0.01425327,509.05511,348.63031)"/><path class="pupil"
              d="m 65.267859,317.98718 a 0.71428573,0.8035714 0 1 1 -1.428571,0 0.71428573,0.8035714 0 1 1 1.428571,0 z"
              transform="matrix(0.42169529,0,0,0.37484028,50.306166,214.31874)"/></g><path class="nose-patch light"
            d="m 58.4375,325.98718 a 0.8125,0.8125 0 1 1 -1.625,0 0.8125,0.8125 0 1 1 1.625,0 z"
            transform="translate(0.1, 0) matrix(3.3076924,0,0,2.5384615,-117.66826,-495.79771)"/><path class="nose"
            d="m 61.3125,327.17468 a 1.0625,0.875 0 1 1 -2.125,0 1.0625,0.875 0 1 1 2.125,0 z"
            transform="translate(10.9375,4.5335181)"/></g></marker><g transform="translate(-54,-2)"
       style="stroke:black; stroke-width:1.5; stroke-linecap:round"
       id="WingedSingleJump"><rect style="fill:lightgrey;" height="4" width="30" y="0" x="0" /><line y2="2" x2="78" y1="2" x1="30" /><rect style="fill:lightgrey;" height="4" width="30" y="0" x="78" /></g><g class="number" transform="translate(-34,-34)" id="Number7"><circle cx="34" cy="34" r="18" style="fill:none;"/><text x="34" y="42" id="Number7Text">7</text></g><g class="number" transform="translate(-34,-34)" id="Number5"><circle cx="34" cy="34" r="18" style="fill:none;"/><text x="34" y="42" id="Number5Text">5</text></g><g class="number" transform="translate(-34,-34)" id="Number2"><circle cx="34" cy="34" r="18" style="fill:none;"/><text x="34" y="42" id="Number2Text">2</text></g><g class="number" transform="translate(-34,-34)" id="Number1"><circle cx="34" cy="34" r="18" style="fill:none;"/><text x="34" y="42" id="Number1Text">1</text></g><g class="number" transform="translate(-34,-34)" id="Number8"><circle cx="34" cy="34" r="18" style="fill:none;"/><text x="34" y="42" id="Number8Text">8</text></g><g class="number" transform="translate(-34,-34)" id="Number6"><circle cx="34" cy="34" r="18" style="fill:none;"/><text x="34" y="42" id="Number6Text">6</text></g><g class="number" transform="translate(-34,-34)" id="Number4"><circle cx="34" cy="34" r="18" style="fill:none;"/><text x="34" y="42" id="Number4Text">4</text></g><g class="number" transform="translate(-34,-34)" id="Number3"><circle cx="34" cy="34" r="18" style="fill:none;"/><text x="34" y="42" id="Number3Text">3</text></g></defs><g transform="translate(-38,-200)"><use id="MN" transform="translate(190,278)" xlink:href="#WingedSingleJump"
         x="0" y="0" width="1" height="1" /><use id="FL" transform="matrix(0,1,-1,0,290,376)" xlink:href="#WingedSingleJump"
         x="0" y="0" width="1" height="1" /><use id="BH" transform="matrix(0,1,-1,0,90,376)" xlink:href="#WingedSingleJump"
         x="0" y="0" width="1" height="1" /><use id="AG" transform="translate(190,475)" xlink:href="#WingedSingleJump"
         x="0" y="0" width="1" height="1" /><use class="number"
     id="M1"
     transform="translate(190,303)"
     xlink:href="#Number8"
     x="0" y="0" width="1" height="1" /><use class="number"
     id="N1"
     transform="translate(190,253)"
     xlink:href="#Number3"
     x="0" y="0" width="1" height="1" /><use class="number"
     id="A1"
     transform="translate(190,500)"
     xlink:href="#Number1"
     x="0" y="0" width="1" height="1" /><use class="number"
     id="G1"
     transform="translate(190,451)"
     xlink:href="#Number5"
     x="0" y="0" width="1" height="1" /><use class="number"
     id="B1"
     transform="translate(65,376)"
     xlink:href="#Number6"
     x="0" y="0" width="1" height="1" /><use class="number"
     id="H1"
     transform="translate(115,376)"
     xlink:href="#Number2"
     x="0" y="0" width="1" height="1" /><use class="number"
     id="L1"
     transform="translate(265,376)"
     xlink:href="#Number4"
     x="0" y="0" width="1" height="1" /><use class="number"
     id="F1"
     transform="translate(315,376)"
     xlink:href="#Number7"
     x="0" y="0" width="1" height="1" /><g class="dog-paths"><g class="dog-path dog-path-0"><path d="M 207.699,492.522 C 190,475 206.667,491.5 190,475 S 111,401.5 90,376 S 56.3333,342.667 64,322 C 71.6667,301.333 115,259.333 136,252 C 157,244.667 164.333,257.333 190,278 S 269.8,350.417 290,376 S 327.867,415 311.2,431.5 S 219.2,463.417 190,475 S 157,508.5 136,501 S 71.6667,450.833 64,430 C 56.3333,409.167 52.3333,398 90,376 C 127.667,354 252.333,307 290,298 C 327.667,289 316,309 316,322 S 311,383.333 290,376 S 206.667,294.333 190,278 L 164.661,252.428" /><g class="dog-path-segments dog-path-segments-0"><path d="M 207.699,492.522 C 190,475 206.667,491.5 190,475 S 111,401.5 90,376" class="dog-path-segment dog-path-segment-0" /><path d="M 90,376 C 69,350.5 56.3333,342.667 64,322 C 71.6667,301.333 115,259.333 136,252 C 157,244.667 164.333,257.333 190,278" class="dog-path-segment dog-path-segment-1" /><path d="M 190,278 C 215.667,298.667 269.8,350.417 290,376" class="dog-path-segment dog-path-segment-2" /><path d="M 290,376 C 310.2,401.583 327.867,415 311.2,431.5 S 219.2,463.417 190,475" class="dog-path-segment dog-path-segment-3" /><path d="M 190,475 C 160.8,486.583 157,508.5 136,501 S 71.6667,450.833 64,430 C 56.3333,409.167 52.3333,398 90,376" class="dog-path-segment dog-path-segment-4" /><path d="M 90,376 C 127.667,354 252.333,307 290,298 C 327.667,289 316,309 316,322 S 311,383.333 290,376" class="dog-path-segment dog-path-segment-5" /><path d="M 290,376 C 269,368.667 206.667,294.333 190,278 L 164.661,252.428" class="dog-path-segment dog-path-segment-6" /></g></g></g><g class="dog"><g transform="rotate(90) translate(-90, -332)"><path
            d="m 168.57143,342.36218 a 48.57143,16.002716 0 1 1 -97.14286,0 48.57143,16.002716 0 1 1 97.14286,0 z"
            transform="matrix(0.32710001,0,0,0.2784047,46.804973,236.39296)"/><rect
          width="4.0"
          height="4.0"
          x="427.17111"
          y="-315.4704"
          transform="matrix(0.89394488,0.44817692,0.89598138,-0.44409161,0,0)"
          class="tail"/><rect
          width="4.0"
          height="4.0"
          x="433.19666"
          y="-319.34143"
          transform="matrix(0.89687096,0.4422923,0.89886065,-0.43823456,0,0)"
          class="tail"/><rect
          width="4.0"
          height="4.0"
          x="426.9075"
          y="-309.61975"
          transform="matrix(0.89203883,0.45195876,0.89410555,-0.4478563,0,0)"
          class="tail"/><rect
          width="4.5"
          height="4.5"
          x="477.41101"
          y="-362.47357"
          transform="matrix(0.9180799,0.39639538,0.91971479,-0.39258719,0,0)"
          class="light" style="stroke:inherit;stroke-width:0.5"/><g transform="translate(0.3,0)"><path class="collar light" style="stroke:inherit"
              d="m 78.665628,333.44925 a 3.7880721,3.0935922 0 1 1 -7.576144,0 3.7880721,3.0935922 0 1 1 7.576144,0 z"
              transform="matrix(0.04548494,1.1005618,-0.78579549,0.06082037,339.2468,229.02032)"/></g><rect class="ear"
            width="4.6"
            height="4.6"
            x="-144.54303"
            y="271.81638"
            transform="matrix(0.58551105,-0.81066443,0.58990933,0.80746949,0,0)"/><rect class="ear"
            width="4.6"
            height="4.6"
            x="-138.29991"
            y="265.81006"
            transform="matrix(0.58551105,-0.81066443,0.58990933,0.80746949,0,0)"/><path class="forehead-stripe light"
            d="m 59.093923,328.46161 a 2.841054,0.75761443 0 1 1 -5.682108,0 2.841054,0.75761443 0 1 1 5.682108,0 z"
            transform="matrix(1,0,0,0.5,20.23276,167.47739)"/><g class="eye" transform="translate(-0.6,-0.5)"><path class="light"
              d="m 59.093923,328.46161 a 2.841054,0.75761443 0 1 1 -5.682108,0 2.841054,0.75761443 0 1 1 5.682108,0 z"
              transform="matrix(0.02140183,-0.3519611,-1.3174475,0.01425327,509.05512,345.02044)"/><path class="pupil"
              d="m 65.267859,317.98718 a 0.71428573,0.8035714 0 1 1 -1.428571,0 0.71428573,0.8035714 0 1 1 1.428571,0 z"
              transform="matrix(0.42169529,0,0,0.37484028,50.306171,210.70887)"/></g><g class="eye" transform="translate(-0.6,0.5)"><path class="light"
              d="m 59.093923,328.46161 a 2.841054,0.75761443 0 1 1 -5.682108,0 2.841054,0.75761443 0 1 1 5.682108,0 z"
              transform="matrix(0.02140184,-0.3519611,-1.3174475,0.01425327,509.05511,348.63031)"/><path class="pupil"
              d="m 65.267859,317.98718 a 0.71428573,0.8035714 0 1 1 -1.428571,0 0.71428573,0.8035714 0 1 1 1.428571,0 z"
              transform="matrix(0.42169529,0,0,0.37484028,50.306166,214.31874)"/></g><path class="nose-patch light"
            d="m 58.4375,325.98718 a 0.8125,0.8125 0 1 1 -1.625,0 0.8125,0.8125 0 1 1 1.625,0 z"
            transform="translate(0.1, 0) matrix(3.3076924,0,0,2.5384615,-117.66826,-495.79771)"/><path class="nose"
            d="m 61.3125,327.17468 a 1.0625,0.875 0 1 1 -2.125,0 1.0625,0.875 0 1 1 2.125,0 z"
            transform="translate(10.9375,4.5335181)"/></g></g><text x="190" y="550" style="font-size:16px;fill:#000;" id="FooterText">http://goo.gl/QATlXl</text><text x="190" y="590" style="fill:#FDC1C1;" class="site-name">agilitycourses.com</text></g></svg>
